<svg width="16.000000" height="16.000000" viewBox="0 0 16 16"  xmlns="http://www.w3.org/2000/svg" xmlns:xlink="http://www.w3.org/1999/xlink">
	<desc>
			Created with Pixso.
	</desc>
	<defs>
		<clipPath id="clip121_470">
			<rect id="Twitter / Negative" width="16.000000" height="16.000000" />
		</clipPath>
	</defs>
	<rect id="Twitter / Negative" width="16.000000" height="16.000000" />
	<g clip-path="url(#clip121_470)">
		<path id="Vector" d="M5.03345 14.5001C11.0697 14.5001 14.3722 9.49792 14.3722 5.16138C14.3722 5.02075 14.369 4.87701 14.3628 4.73639C15.0052 4.27179 15.5597 3.69629 16 3.03699C15.4017 3.30316 14.7665 3.47705 14.116 3.55261C14.8009 3.14209 15.3137 2.49713 15.5593 1.7373C14.915 2.11914 14.2103 2.38855 13.4756 2.53387C12.9806 2.00781 12.326 1.65955 11.6132 1.54285C10.9003 1.42609 10.1688 1.54749 9.53186 1.88818C8.8949 2.22888 8.38782 2.7699 8.08923 3.42767C7.79065 4.08539 7.71692 4.82318 7.87964 5.52698C6.57495 5.46149 5.29858 5.12262 4.1333 4.53217C2.96802 3.94177 1.93982 3.1131 1.11536 2.09979C0.696289 2.82227 0.567993 3.67725 0.756714 4.49084C0.945312 5.3045 1.43677 6.01575 2.13098 6.4801C1.60974 6.46356 1.09998 6.32324 0.643799 6.07074L0.643799 6.11139C0.643311 6.86957 0.905396 7.60449 1.3855 8.19128C1.86572 8.77808 2.53418 9.18048 3.27747 9.33014C2.79468 9.46222 2.28796 9.48145 1.79651 9.38635C2.00635 10.0384 2.41443 10.6087 2.96387 11.0177C3.51331 11.4266 4.17676 11.6539 4.86157 11.6676C3.69897 12.5809 2.26282 13.0762 0.784424 13.0739C0.522217 13.0735 0.260254 13.0574 0 13.0258C1.50195 13.9893 3.24902 14.501 5.03345 14.5001Z" />
	</g>
</svg>
